# xmcd CD database file
#
# Track frame offsets:
#	150
#	17904
#	36810
#	56157
#	86892
#	105081
#	127298
#	157408
#	180066
#	212169
#	234678
#	253270
#	273001
#	307723
#
# Disc length: 4294 seconds
#
# Revision: 4
# Processed by: cddbd v1.4PL0 Copyright (c) Steve Scherf et al.
# Submitted via: CDex 1.40Release
#
DISCID=be10c40e
DTITLE=Gary Moore - Ballads and Blues 1982-1994
DYEAR=1994
DGENRE=Blues
TTITLE0=Always gonna love you
TTITLE1=Still got the blues
TTITLE2=Empty rooms
TTITLE3=Parisienne walkways
TTITLE4=One day
TTITLE5=Seperate ways
TTITLE6=Story of the blues
TTITLE7=Srying in the shadows
TTITLE8=With love (remember)
TTITLE9=Midnight blues
TTITLE10=Falling in love with you
TTITLE11=Jumpin' at shadows
TTITLE12=Blues for narada
TTITLE13=Johnny boy
EXTD=YEAR: 1994 ID3G: 0
EXTT0=
EXTT1=
EXTT2=
EXTT3=
EXTT4=
EXTT5=
EXTT6=
EXTT7=
EXTT8=
EXTT9=
EXTT10=
EXTT11=
EXTT12=
EXTT13=
PLAYORDER=
